<svg version="1.2" xmlns="http://www.w3.org/2000/svg" viewBox="0 0 56 82" width="56" height="82"><style>.a{fill:#fff;stroke:#fff;paint-order:stroke fill markers;stroke-miterlimit:100;stroke-width:2}</style><path fill-rule="evenodd" class="a" d="m46.3 39.1c2.6-3.1 4.2-7.1 4.2-11.4 0-8.3-5.7-15.3-13.5-17.2v-5.1c0-2.4-2-4.4-4.5-4.4-2.5 0-4.5 2-4.5 4.4v4.5h-9v-4.5c0-2.4-2-4.4-4.5-4.4-2.5 0-4.5 2-4.5 4.4v4.5h-4.5c-2.5 0-4.5 2-4.5 4.4 0 2.5 2.5 4.7 5 4.7h4v22 22h-5c-2.5 0-4 2.2-4 4.7 0 2.4 2 4.4 4.5 4.4h4.5v4.5c0 2.4 2 4.4 4.5 4.4 2.5 0 4.5-2 4.5-4.4v-4.5h9v4.5c0 2.4 2 4.4 4.5 4.4 2.5 0 4.5-2 4.5-4.4v-4.5c9.9 0 18-8 18-17.8 0-6.4-3.5-12.1-8.7-15.2zm-27.3-20.1h13.8c5.1 0 9.2 4 9.2 9 0 5-4.1 9-9.2 9h-13.8zm18 44h-18v-18c2.1 0 16.1 0 18 0 5 0 9 4 9 9 0 5-4 9-9 9z"/></svg>